<?xml version="1.0" standalone="no"?>
<!DOCTYPE svg PUBLIC "-//W3C//DTD SVG 20010904//EN"
 "http://www.w3.org/TR/2001/REC-SVG-20010904/DTD/svg10.dtd">
<svg version="1.0" xmlns="http://www.w3.org/2000/svg"
 width="700.000000pt" height="700.000000pt" viewBox="0 0 700.000000 700.000000"
 preserveAspectRatio="xMidYMid meet">
<metadata>
Created by potrace 1.14, written by Peter Selinger 2001-2017
</metadata>
<g transform="translate(0.000000,700.000000) scale(0.100000,-0.100000)"
fill="#000000" stroke="none">
<path d="M768 6663 c-3 -7 -2 -2939 1 -2984 1 -13 28 -15 214 -15 l212 1 5
600 5 600 318 0 319 -1 255 -449 c140 -248 267 -472 282 -500 50 -90 135 -240
139 -245 2 -3 109 -5 238 -5 264 -1 250 -6 199 75 -13 19 -94 159 -180 310
-87 151 -168 292 -181 312 -13 21 -24 39 -24 42 0 2 -45 82 -101 177 -131 226
-161 280 -157 284 2 2 111 65 243 141 132 76 242 139 245 142 3 2 5 280 5 619
l1 614 -71 42 c-38 22 -151 87 -249 144 l-180 103 -767 0 c-422 0 -769 -3
-771 -7z m1610 -896 l2 -517 -590 0 -590 0 0 513 c0 283 2 516 4 518 2 2 267
4 588 4 l583 -1 3 -517z"/>
<path d="M1475 3350 c-177 -5 -181 -6 -230 -34 -91 -53 -103 -60 -270 -156
l-165 -95 0 -575 0 -575 248 -144 247 -144 538 -1 537 0 0 -468 0 -467 -590 0
-590 0 0 172 0 172 -215 0 c-118 0 -216 -2 -216 -5 -1 -3 -3 -102 -4 -221 l-1
-215 198 -115 c110 -63 223 -127 252 -144 l53 -30 519 0 519 0 250 144 251
143 -1 589 0 589 -25 13 c-14 8 -44 25 -67 40 -24 15 -45 27 -47 27 -2 0 -50
27 -105 60 -56 33 -103 60 -105 60 -2 0 -35 19 -72 42 l-69 43 -537 0 c-471 0
-538 2 -538 15 -1 19 -1 825 0 865 l0 31 565 0 c386 0 565 -3 566 -11 1 -5 2
-82 3 -170 l1 -160 218 -2 217 -2 0 222 0 222 -97 55 c-54 30 -105 60 -115 65
-24 14 -147 85 -183 105 -16 10 -46 27 -66 39 -36 21 -48 22 -365 24 -181 1
-410 0 -509 -3z"/>
<path d="M3619 3301 c0 -14 0 -687 -1 -1495 0 -984 3 -1471 10 -1475 6 -3 351
-6 769 -5 l758 0 110 64 c61 35 121 70 135 77 14 7 77 44 140 81 l115 67 0
519 c0 285 -2 522 -5 526 -6 10 -285 174 -337 199 -18 8 -33 18 -33 21 0 3 55
37 122 75 68 39 131 75 140 80 9 6 36 21 60 34 24 13 45 27 48 31 3 5 5 218 5
475 l0 467 -40 23 c-22 12 -85 48 -140 80 -55 32 -113 66 -130 75 -16 10 -64
37 -105 61 l-75 44 -772 1 -773 0 -1 -25z m1597 -363 c7 -5 10 -145 10 -435
l-1 -428 -587 -1 -588 -1 -1 26 c-5 162 -2 842 4 843 17 6 1153 2 1163 -4z m9
-1739 l0 -486 -590 0 -590 0 2 476 c1 262 2 481 2 487 1 7 184 10 589 10 l587
-1 0 -486z"/>
</g>
</svg>
