<svg id="Layer_1" data-name="Layer 1" xmlns="http://www.w3.org/2000/svg" viewBox="0 0 70.6 66.72"><defs><style>.cls-1{fill:#fff;}</style></defs><title>calendar2</title><path d="M62.25,0H8.35L0,4.82V61.9l8.35,4.82h53.9L70.6,61.9V4.82Z"/><path class="cls-1" d="M60.82,51.65,52.08,56.7H18.52L9.78,51.65V11.91l8.74-5H52.08l8.74,5.05Z"/><path d="M56.88,49.2l-6.74,3.89H20.46L13.72,49.2V14.36l6.74-3.89H50.14l6.74,3.89Z"/><path class="cls-1" d="M47.82,13.05H44.09V4.16h3.73Z"/><path class="cls-1" d="M25.62,13.05H21.89V4.16h3.73Z"/><path class="cls-1" d="M57.84,18.69v3.73H12.35V18.69Z"/><path class="cls-1" d="M24.24,30.92l-1.48.86H18.07l-1.48-.86v-5L18.07,25h4.69l1.48.86Z"/><path class="cls-1" d="M34.17,30.92l-1.49.86H28l-1.48-.86v-5L28,25h4.69l1.49.86Z"/><path class="cls-1" d="M44.09,30.92l-1.48.86H37.92l-1.49-.86v-5L37.92,25h4.69l1.48.86Z"/><path class="cls-1" d="M54,30.92l-1.48.86H47.84l-1.48-.86v-5L47.84,25h4.69l1.48.86Z"/><path class="cls-1" d="M24.24,39.7l-1.48.86H18.07l-1.48-.86v-5l1.48-.86h4.69l1.48.86Z"/><path class="cls-1" d="M34.17,39.7l-1.49.86H28l-1.48-.86v-5L28,33.8h4.69l1.49.86Z"/><path class="cls-1" d="M44.09,39.7l-1.48.86H37.92l-1.49-.86v-5l1.49-.86h4.69l1.48.86Z"/><path class="cls-1" d="M54,39.7l-1.48.86H47.84l-1.48-.86v-5l1.48-.86h4.69l1.48.86Z"/><path class="cls-1" d="M24.24,48.48l-1.48.85H18.07l-1.48-.85v-5l1.48-.86h4.69l1.48.86Z"/><path class="cls-1" d="M34.17,48.48l-1.49.85H28l-1.48-.85v-5L28,42.58h4.69l1.49.86Z"/><path class="cls-1" d="M44.09,48.48l-1.48.85H37.92l-1.49-.85v-5l1.49-.86h4.69l1.48.86Z"/><path class="cls-1" d="M54,48.48l-1.48.85H47.84l-1.48-.85v-5l1.48-.86h4.69l1.48.86Z"/></svg>