<svg id="Layer_1" data-name="Layer 1" xmlns="http://www.w3.org/2000/svg" viewBox="0 0 70.6 66.72"><defs><style>.cls-1{fill:#fff;}</style></defs><title>Megafone1 copy</title><path d="M62.25,0H8.35L0,4.82V61.9l8.35,4.82h53.9L70.6,61.9V4.82Z"/><path class="cls-1" d="M36.39,35.47l-3.79,4.4-9.11,3.19L17.79,42l-4.23-12.1,3.78-4.4,9.12-3.19,5.7,1.08Z"/><path class="cls-1" d="M34,28.58l19.24-6.73,7,19.9-2.31.81L36.21,35Z"/><path class="cls-1" d="M32.34,23.88,44.54,4.44l2.31-.8,7,19.9L34.57,30.27Z"/><path class="cls-1" d="M31.63,56.33l-3.52,1.23-8.39-24,3.51-1.23Z"/><path class="cls-1" d="M30.7,44.35l-.9,1-3.57,1.25-1.35-.26-1.34-3.83.9-1L28,40.25l1.35.26Z"/><path class="cls-1" d="M16.57,32.34l1.05.9,1.25,3.57-.26,1.36-3.84,1.34-1-.9L12.48,35l.26-1.35Z"/></svg>