<svg id="Layer_1" data-name="Layer 1" xmlns="http://www.w3.org/2000/svg" viewBox="0 0 70.6 66.72"><defs><style>.cls-1{fill:#fff;}</style></defs><title>Artboard 5 copy 8</title><path d="M62.25,0H8.35L0,4.82V61.9l8.35,4.82h53.9L70.6,61.9V4.82Z"/><polygon class="cls-1" points="48.88 11.59 48.88 16.31 48.88 45.82 48.88 51.15 42.14 55.04 33.46 55.04 26.71 51.15 26.71 16.31 33.46 12.42 42.14 12.42 42.59 12.68 42.59 47.53 40.63 48.72 35.17 48.82 33 47.57 33 21.33 29.07 21.33 29.07 49.81 33.97 52.69 41.6 52.69 46.53 49.79 46.53 14.95 46.53 14.95 46.53 10.23 44.07 8.81 31.52 8.81 22.78 13.86 22.78 53.6 31.52 58.65 44.07 58.65 52.82 53.6 52.82 13.86 48.88 11.59"/></svg>