<?xml version="1.0" encoding="utf-8"?>
<!-- Generator: Adobe Illustrator 24.0.1, SVG Export Plug-In . SVG Version: 6.00 Build 0)  -->
<svg version="1.1" id="botao2" xmlns="http://www.w3.org/2000/svg" xmlns:xlink="http://www.w3.org/1999/xlink" x="0px" y="0px"
	 viewBox="0 0 222.3 73.8" style="enable-background:new 0 0 222.3 73.8;" xml:space="preserve">
<style type="text/css">
	.st0{enable-background:new    ;}
	.st1{fill:#F0F0F0;}
</style>
<g id="botão">
	<path id="Path_1" d="M222.3,64.1l-16.8,9.7H16.8L0,64.1V9.7L16.8,0h188.7l16.8,9.7L222.3,64.1z"/>
</g>
<g class="st0">
	<path class="st1" d="M47.4,44.3l-3,1.7H33.2V27.8h11.2l3,1.7V44.3z M36.9,30.9v12h6.9v-12H36.9z"/>
	<path class="st1" d="M63.1,44.4l-3,1.7h-5.5l-3-1.7v-9.8l3-1.7h5.5l3,1.7V44.4z M55.1,35.9v7.2h4.4v-7.2H55.1z"/>
	<path class="st1" d="M75.1,37.8L75.1,37.8L72.7,46H69l-3.3-13H69l2,8.3h0.1l2.3-8.3h3.3l2.3,8.3H79l2-8.3h3.3L81,46h-3.7L75.1,37.8
		z"/>
	<path class="st1" d="M98.5,34.6V46H95V35.9h-4.4V46H87V32.9h2.9l0.6,1.1l1.8-1.1h3.1L98.5,34.6z"/>
	<path class="st1" d="M105.5,46l-3-1.7V27h3.6V43h2.6v3H105.5z"/>
	<path class="st1" d="M122.5,44.4l-3,1.7H114l-3-1.7v-9.8l3-1.7h5.5l3,1.7V44.4z M114.5,35.9v7.2h4.4v-7.2H114.5z"/>
	<path class="st1" d="M128.9,46.1l-3-1.7v-4.5l3-1.7h4.2V36h-5.9v-3h6.5l3,1.7v11.4H135l-1.8-1.1l-1.8,1.1H128.9z M129.5,40.9v2.3
		h3.7v-2.3H129.5z"/>
	<path class="st1" d="M143.6,32.9h3.4l1.8,1.1V27h3.6v19.1h-2.9l-0.6-1.1l-1.8,1.1h-3.4l-3-1.7v-9.8L143.6,32.9z M148.9,43.1v-7.2
		h-4.7v7.2H148.9z"/>
	<path class="st1" d="M173.1,40.7h3.6v3.7l-3,1.7h-7.4l-3-1.7v-15l3-1.7h7.4l3,1.7v3.7h-3.6v-2.3H167V43h6.1V40.7z"/>
	<path class="st1" d="M196.1,27.8L189.6,46h-4l-6.5-18.2h3.7l4.8,13.8h0.1l4.8-13.8H196.1z"/>
</g>
</svg>
