<svg id="Layer_1" data-name="Layer 1" xmlns="http://www.w3.org/2000/svg" viewBox="0 0 70 70"><title>Artboard 4</title><path d="M8.6,1.63.25,6.45V63.53L8.6,68.35H61.5l8.35-4.82V6.45L61.5,1.63ZM51.19,21.12a4.58,4.58,0,0,1,4.46,4.73,4.3,4.3,0,0,1-4.54,4.6,4.88,4.88,0,0,1-5-4.51C46,23.41,48.41,21.12,51.19,21.12ZM19.25,50.35a1.51,1.51,0,0,1-1.48-.1C13,45.55,8.38,40.79,3.7,36a5.71,5.71,0,0,1-.4-.66c2.38-2.31,4.82-4.62,7.21-7s4.68-4.71,6.93-7.14c.71-.77,1.18-.88,1.85-.07,1.37,1.68,2.77,3.34,4.28,5.16l-9.85,9.21,10.47,10.1C22.5,47.28,20.93,48.88,19.25,50.35Zm8-10.47A4.13,4.13,0,0,1,23,35.67a4.25,4.25,0,0,1,4.38-4.36c2.46.14,4.22,1.5,4.24,4.66C31.63,38.29,29.81,39.89,27.24,39.88Zm38.32-6.64c1.28,1.13,1,1.63-.18,2.76-4.13,3.91-8.06,8-12.07,12.08-.72.73-1.49,1.41-2.35,2.22-2.35-2.26-4.64-4.43-6.87-6.65-2.51-2.5-4.91-5.1-7.45-7.56-1-1-1.33-1.63-.07-2.72,1.61-1.38,3-3,4.65-4.7l9.25,9.75,10.61-9.57C62.43,30.19,63.91,31.8,65.56,33.24Z"/></svg>