<svg id="Layer_1" data-name="Layer 1" xmlns="http://www.w3.org/2000/svg" viewBox="0 0 70.6 66.72"><defs><style>.cls-1{fill:#fff;}</style></defs><title>Artboard 5 copy 3</title><path d="M62.25,0H8.35L0,4.82V61.9l8.35,4.82h53.9L70.6,61.9V4.82Z"/><path class="cls-1" d="M12.1,19.32c4.57,0,9.19,0,13.81,0a36.6,36.6,0,0,1,5.13.29c4.91.76,8.06,3.78,8.61,8.09A11,11,0,0,1,32.57,39.3l-1.24.45c0,.12,0,.21,0,.26a67.05,67.05,0,0,0,9.43,13A8.62,8.62,0,0,0,46.24,56c.35,1.59.26,1.74-1.24,1.9-3.94.42-7.44-.58-9.81-3.87-2.95-4.11-5.67-8.4-8.43-12.65a1.65,1.65,0,0,0-1.66-1c-1.15.07-2.3,0-3.56,0,0,.26-.06.58-.06.91,0,3.13,0,6.27,0,9.4a18.3,18.3,0,0,0,.19,2.22,2.47,2.47,0,0,0,2.21,2.32l3.16.48v1.64H12V55.73c.88-.18,1.72-.34,2.55-.53a2.41,2.41,0,0,0,2-2.05,15,15,0,0,0,.25-2.67q0-12,0-24.06c0-.34,0-.68,0-1-.12-2.77-.8-3.55-3.5-4C11.73,21.15,11.71,21.12,12.1,19.32Zm9.43,18.19a54.23,54.23,0,0,0,6.26,0,7.91,7.91,0,0,0,5.73-12A7.34,7.34,0,0,0,30.75,23c-2.93-1.47-6.1-.81-9.22-.82Z"/><path class="cls-1" d="M56.33,12.47A16.56,16.56,0,0,0,55,11a4.15,4.15,0,0,0-4.58-.8A4.15,4.15,0,0,0,47.58,14c-.06,2.2-.08,4.41,0,6.6.14,2.78,1.56,4.42,3.71,4.56,2.38.14,4.15-1.36,4.7-4,.12-.57.14-1.17.22-1.86H52.37V17H58.9c.08,2.38.35,4.78-.55,7a6.18,6.18,0,0,1-1.81,2.47c-2.29,1.82-7,1.82-9.44.14a5.66,5.66,0,0,1-2.54-4.42,73.88,73.88,0,0,1-.07-9c.3-4.24,4.19-6.77,8.82-6a6.63,6.63,0,0,1,4.82,2.92c.4.62.41,1-.3,1.43C57.31,11.76,56.84,12.13,56.33,12.47Z"/></svg>