<svg id="Layer_1" data-name="Layer 1" xmlns="http://www.w3.org/2000/svg" viewBox="0 0 70.6 66.72"><defs><style>.cls-1{fill:#fff;}</style></defs><title>calendar3</title><path d="M62.25,0H8.35L0,4.82V61.9l8.35,4.82h53.9L70.6,61.9V4.82Z"/><path class="cls-1" d="M60.82,51.65,52.08,56.7H18.52L9.78,51.65V11.91l8.74-5H52.08l8.74,5.05Z"/><path d="M56.88,49.2l-6.74,3.89H20.46L13.72,49.2V14.36l6.74-3.89H50.14l6.74,3.89Z"/><path class="cls-1" d="M47.82,13.05H44.09V4.16h3.73Z"/><path class="cls-1" d="M25.62,13.05H21.89V4.16h3.73Z"/><path class="cls-1" d="M57.84,18.69v3.73H12.35V18.69Z"/><path class="cls-1" d="M24.27,30.78l-1.19.69H19.29l-1.19-.69V26.71L19.29,26h3.79l1.19.69Z"/><path class="cls-1" d="M33.68,30.78l-1.19.69H28.7l-1.19-.69V26.71L28.7,26h3.79l1.19.69Z"/><path class="cls-1" d="M43.09,30.78l-1.19.69H38.11l-1.19-.69V26.71L38.11,26H41.9l1.19.69Z"/><path class="cls-1" d="M52.5,30.78l-1.19.69H47.52l-1.19-.69V26.71L47.52,26h3.79l1.19.69Z"/><path class="cls-1" d="M24.27,39.06l-1.19.69H19.29l-1.19-.69V35l1.19-.69h3.79l1.19.69Z"/><path class="cls-1" d="M33.68,39.06l-1.19.69H28.7l-1.19-.69V35l1.19-.69h3.79l1.19.69Z"/><path class="cls-1" d="M43.09,39.06l-1.19.69H38.11l-1.19-.69V35l1.19-.69H41.9l1.19.69Z"/><path class="cls-1" d="M52.5,39.06l-1.19.69H47.52l-1.19-.69V35l1.19-.69h3.79L52.5,35Z"/><path class="cls-1" d="M24.27,47.34,23.08,48H19.29l-1.19-.69V43.27l1.19-.69h3.79l1.19.69Z"/><path class="cls-1" d="M33.68,47.34,32.49,48H28.7l-1.19-.69V43.27l1.19-.69h3.79l1.19.69Z"/><path class="cls-1" d="M43.09,47.34,41.9,48H38.11l-1.19-.69V43.27l1.19-.69H41.9l1.19.69Z"/><path class="cls-1" d="M52.5,47.34,51.31,48H47.52l-1.19-.69V43.27l1.19-.69h3.79l1.19.69Z"/></svg>