<svg id="Layer_1" data-name="Layer 1" xmlns="http://www.w3.org/2000/svg" viewBox="0 0 74 70"><title>Artboard 2</title><polygon points="67.36 20.88 67.36 8.46 73.61 2.2 24.61 2.2 1.11 25.69 19.83 25.69 19.83 59.27 28.18 64.09 47.12 64.09 55.47 59.27 55.47 38.53 39.99 38.53 39.99 45.01 48.27 45.01 48.27 57.61 27.03 57.61 27.03 19.45 48.27 19.45 48.27 25.93 55.47 25.93 55.47 20.34 64.36 11.46 64.36 20.88 63.16 20.88 62.2 22.54 62.2 41.23 63.16 42.89 68.55 42.89 69.52 41.23 69.52 22.54 68.55 20.88 67.36 20.88"/></svg>