<svg id="Layer_1" data-name="Layer 1" xmlns="http://www.w3.org/2000/svg" viewBox="0 0 70.6 66.72"><defs><style>.cls-1{fill:#fff;}</style></defs><title>Artboard 5 copy 5</title><path d="M62.25,0H8.35L0,4.82V61.9l8.35,4.82h53.9L70.6,61.9V4.82Z"/><path class="cls-1" d="M15.54,6.31,26.35,12.9c1.76,1.07,3.5,2.16,5.26,3.23a4.67,4.67,0,0,1,2.24,3c1.73,6.6,3.52,13.18,5.29,19.77A1.74,1.74,0,0,1,38,41.31L21.74,48.88c-1.09.51-1.65.25-2-.9L14.4,27.87a1.69,1.69,0,0,1,1-2.27l4-1.87c-.44-1.64-.87-3.27-1.31-4.89-1-3.85-2.07-7.71-3.09-11.56a4.48,4.48,0,0,1,0-1Z"/><path class="cls-1" d="M55.06,60.41,44.25,53.82c-1.8-1.1-3.59-2.22-5.4-3.31a4.42,4.42,0,0,1-2.11-2.84c-.3-1.24-.65-2.47-1-3.74l3.82-1.77a1.94,1.94,0,0,0,1.2-2.56q-2.07-7.74-4.15-15.49l-.1-.45.45-.23L48.88,17.9c1.09-.51,1.63-.25,1.94.91l5.37,20.08a1.68,1.68,0,0,1-1.1,2.32L51.17,43l1.09,4.08q1.66,6.2,3.31,12.38a4.68,4.68,0,0,1,0,.92Z"/></svg>