<svg id="Layer_1" data-name="Layer 1" xmlns="http://www.w3.org/2000/svg" viewBox="0 0 70 70"><title>Artboard 3</title><path d="M62,1.53H8.12L-.23,6.35V63.43l8.35,4.82H62l8.36-4.82V6.35ZM53.88,23.16a2.49,2.49,0,0,1-1.89.75c-1-.15-1.87-2.32-3.24-2.32-1.87,0-5,3.29-10.14,10.4l2.9,9c1.55,4.89,2.78,7.25,4.16,7.25s2.94-1.06,6.16-5l1.55,2c-3.86,6.17-8.2,9.34-11.28,9.34-2.41,0-4.28-2.74-6.35-9.27l-2.18-7C25.54,50,21.88,54.6,18.06,54.6a3.87,3.87,0,0,1-3.93-4.16c.1-2.6,2.27-5.25,3.9-5.25,1.19,0,2,2.34,3.25,2.34,1.53,0,4.2-2.64,11.31-12.53l-2.25-7.39C28.88,23,28.09,21.45,27,21.45c-.84,0-2.52.82-5.35,4.73l-1.76-1.95c3.81-5.88,7.69-9,10.5-9,2.44,0,4.07,2.67,6,9l1.29,4.48c7.18-10,10.84-13.51,14.63-13.51A3.52,3.52,0,0,1,56,19,6.34,6.34,0,0,1,53.88,23.16Z"/></svg>