<svg id="Layer_1" data-name="Layer 1" xmlns="http://www.w3.org/2000/svg" viewBox="0 0 70.6 66.72"><defs><style>.cls-1{fill:#b3b3b3;}.cls-2{fill:#fefefe;}</style></defs><title>Artboard 5 copy 10</title><path d="M62.25,0H8.35L0,4.82V61.9l8.35,4.82h53.9L70.6,61.9V4.82Z"/><path class="cls-1" d="M22.57,46.16a11.92,11.92,0,0,1-3.7,2.43A9.81,9.81,0,0,1,8.36,47.08a10.19,10.19,0,0,1-3.57-6.47,13.24,13.24,0,0,1,.38-6.52,10.69,10.69,0,0,1,4.06-5.33,10.24,10.24,0,0,1,4.28-2.05c3.31-.55,6.34,0,8.86,2.4l.2.17v-.44q0-6.94,0-13.9c0-.33.07-.43.41-.43q3,0,6.09,0c.29,0,.4.06.4.38q0,16.85,0,33.68c0,.31-.1.36-.38.35q-3.07,0-6.16,0c-.29,0-.37-.08-.36-.37C22.58,47.79,22.57,47,22.57,46.16ZM22.4,36.9A4.58,4.58,0,0,0,19.28,33a4.16,4.16,0,0,0-2.61-.45,5.58,5.58,0,0,0-4,7.43A4.63,4.63,0,0,0,18,43.17C20.55,42.61,22.44,40.42,22.4,36.9Z"/><path class="cls-2" d="M44,26.22a11.81,11.81,0,0,1,7.6,2.59,11.28,11.28,0,0,1,4.29,8.85,11.44,11.44,0,0,1-3.58,8.88,11.24,11.24,0,0,1-6.14,3,15.39,15.39,0,0,1-6.72-.28,10.94,10.94,0,0,1-8.21-8.71,11.52,11.52,0,0,1,8.95-13.94A18.51,18.51,0,0,1,44,26.22ZM48.25,38a5,5,0,0,0-1.94-4.11A4.74,4.74,0,0,0,41,33.56,5.24,5.24,0,0,0,38.65,39,4.87,4.87,0,0,0,44.39,43,4.93,4.93,0,0,0,48.25,38Z"/><path class="cls-2" d="M65.44,38c0,3.5,0,7,0,10.51,0,.33-.08.41-.4.41q-3.27,0-6.54,0c-.29,0-.39-.06-.39-.38q0-10.57,0-21.14c0-.31.08-.39.39-.39h6.56c.33,0,.38.11.38.4Q65.44,32.71,65.44,38Z"/><path class="cls-2" d="M61.8,22.89a4.11,4.11,0,1,1,4.1-4.15A4,4,0,0,1,61.8,22.89Z"/></svg>