<svg id="Layer_1" data-name="Layer 1" xmlns="http://www.w3.org/2000/svg" viewBox="0 0 70.6 66.72"><defs><style>.cls-1{fill:#fff;}</style></defs><title>Megafone1</title><path d="M62.25,0H8.35L0,4.82V61.9l8.35,4.82h53.9L70.6,61.9V4.82Z"/><path class="cls-1" d="M34.81,36.37l-3.66,4.5-9,3.43-5.73-.92-4.55-12,3.66-4.5,9-3.44,5.73.93Z"/><path class="cls-1" d="M32.22,29.54,51.27,22.3,58.76,42l-2.28.87-21.86-7Z"/><path class="cls-1" d="M30.45,24.89,42.12,5.14l2.29-.87L51.9,24l-19,7.25Z"/><path class="cls-1" d="M30.61,57.35l-3.48,1.33-9-23.77,3.49-1.32Z"/><path class="cls-1" d="M29.37,45.4l-.87,1.07L25,47.81l-1.36-.22-1.44-3.8L23,42.72l3.53-1.34,1.36.22Z"/><path class="cls-1" d="M52.07,18.69l1.07.87,1.34,3.54-.22,1.36-3.8,1.44L49.39,25,48.05,21.5l.22-1.36Z"/></svg>