<svg id="Layer_1" data-name="Layer 1" xmlns="http://www.w3.org/2000/svg" viewBox="0 0 70 70"><title>Artboard 5</title><path d="M23.38,46.55h2.31c.2,0,.4,0,.65,0V24.78h-3Z"/><path d="M24.85,18.14a2,2,0,0,0-2,2,2.06,2.06,0,0,0,2,2.12,2.11,2.11,0,0,0,2.09-2.05A2.06,2.06,0,0,0,24.85,18.14Z"/><path d="M61.9,1.33H8L-.35,6.16V63.23L8,68.05H61.9l8.35-4.82V6.16Zm-27,59.47a26.11,26.11,0,1,1,26.19-26A26.14,26.14,0,0,1,34.89,60.8Z"/><path d="M26.34,46.51c-.25,0-.45,0-.65,0H23.38V24.78h3Z"/><path d="M26.93,20.18a2.11,2.11,0,0,1-2.09,2.05,2.06,2.06,0,0,1-2-2.12,2,2,0,0,1,2-2A2.06,2.06,0,0,1,26.93,20.18Z"/><path d="M42.72,25.15c-3.76-.6-7.64-.43-11.6-.61V46.68c3.69-.11,7.34,0,10.93-.39a10.59,10.59,0,0,0,9.11-10.44C51.31,30.58,47.94,26,42.72,25.15Zm5.22,11c-.43,4.17-3.11,7.07-7.1,7.42-2.16.19-4.34,0-6.61,0V27.55c2.87.13,5.72-.36,8.5.57A7.59,7.59,0,0,1,47.94,36.19Z"/></svg>