<svg id="Layer_1" data-name="Layer 1" xmlns="http://www.w3.org/2000/svg" viewBox="0 0 70.6 66.72"><defs><style>.cls-1{fill:#fff;}</style></defs><title>Artboard 5 copy 9</title><path d="M62.25,0H8.35L0,4.82V61.9l8.35,4.82h53.9L70.6,61.9V4.82Z"/><polygon class="cls-1" points="41.47 40.6 38.16 43.97 31.56 50.81 27.82 54.62 20.29 52.67 16.23 48.69 14.15 41.19 24.49 30.54 23.4 26.03 9.63 40.18 12.32 49.9 19.14 56.6 28.91 59.12 42.69 44.98 41.47 40.6"/><polygon class="cls-1" points="29.13 26.12 32.44 22.75 39.04 15.9 42.78 12.1 50.31 14.05 54.37 18.03 56.45 25.53 46.11 36.18 47.2 40.69 60.97 26.54 58.27 16.82 51.46 10.12 41.69 7.6 27.91 21.74 29.13 26.12"/><path class="cls-1" d="M27.59,43.71,25,41.07,43,23l2.64,2.64Z"/></svg>