<svg id="Layer_1" data-name="Layer 1" xmlns="http://www.w3.org/2000/svg" viewBox="0 0 70.6 66.72"><defs><style>.cls-1{fill:#fff;}</style></defs><title>Artboard 5 copy 6</title><path d="M62.25,0H8.35L0,4.82V61.9l8.35,4.82h53.9L70.6,61.9V4.82Z"/><path class="cls-1" d="M37.16,57.07H33.44V43.53h3.72Z"/><path class="cls-1" d="M60.82,41.65,52.08,46.7H18.52L9.78,41.65V11.91l8.74-5H52.08l8.74,5.05Z"/><path d="M56.88,39.2l-6.74,3.89H20.46L13.72,39.2V14.36l6.74-3.89H50.14l6.74,3.89Z"/><path class="cls-1" d="M46.45,59.86H34.4V54.7h1.44l10.61,3.71Z"/><path class="cls-1" d="M23.88,58.41l10.6-3.71h1.45v5.16h-12Z"/><path class="cls-1" d="M40.42,37.2H36.7V20.73h3.72Z"/><path class="cls-1" d="M46.94,37.2H43.22V17.94h3.72Z"/><path class="cls-1" d="M26.45,37.2H22.72V29.12h3.73Z"/><path class="cls-1" d="M33.44,37.2H29.71V24.46h3.73Z"/></svg>