<svg id="Layer_1" data-name="Layer 1" xmlns="http://www.w3.org/2000/svg" viewBox="0 0 70 70"><title>Artboard 11</title><path d="M18.43,21.36H12v12H7.66V3.3h15.4l5,2.88V18.49l-5,2.87,6.91,12H25.21ZM12,7.16V17.5h11.8V7.16Z"/><path d="M8.09,50.85V39.36l5-2.88h10l5,2.88v4.42H23.75V40.34H12.38v9.1H23.06l5,2.87V64.07l-5,2.87H12.64l-5-2.87V59.65H12v3.43h11.8V53.73H13.07Z"/><path d="M56.55,49l-3.73,2.14v.09l3.73,2.14V63.85l-5,2.88H36.18v-30h15.4l5,2.87ZM40.47,40.56v8.71H52.26V40.56Zm0,12.57v9.74H52.26V53.13Z"/></svg>