<svg id="Layer_1" data-name="Layer 1" xmlns="http://www.w3.org/2000/svg" viewBox="0 0 70.6 66.72"><defs><style>.cls-1{fill:#fff;}</style></defs><title>Artboard 5 copy 11</title><path d="M62.25,0H8.35L0,4.82V61.9l8.35,4.82h53.9L70.6,61.9V4.82Z"/><path class="cls-1" d="M53.49,20.79a2.47,2.47,0,0,1-1.89.76c-1-.16-1.87-2.33-3.23-2.33-1.87,0-5,3.29-10.15,10.41l2.9,9c1.55,4.88,2.78,7.25,4.17,7.25s2.93-1.07,6.15-5l1.55,2c-3.85,6.16-8.2,9.34-11.28,9.34-2.41,0-4.28-2.75-6.35-9.27l-2.18-7c-8,11.72-11.69,16.31-15.51,16.31a3.86,3.86,0,0,1-3.92-4.16c.1-2.61,2.26-5.26,3.89-5.26,1.19,0,2,2.34,3.25,2.34,1.53,0,4.2-2.63,11.31-12.53L30,25.25c-1.46-4.67-2.26-6.16-3.39-6.16-.83,0-2.52.82-5.35,4.72l-1.76-1.94C23.27,16,27.15,12.81,30,12.81c2.44,0,4.07,2.68,6,9l1.29,4.47c7.18-10,10.84-13.51,14.63-13.51a3.52,3.52,0,0,1,3.74,3.79A6.31,6.31,0,0,1,53.49,20.79Z"/></svg>